<svg width="10" height="10" viewBox="0 0 10 10" fill="none" xmlns="http://www.w3.org/2000/svg">
<path d="M5.72654 6.79766C5.70892 6.78022 5.68512 6.77043 5.66033 6.77043C5.63553 6.77043 5.61174 6.78022 5.59412 6.79766L4.2324 8.15938C3.60193 8.78985 2.53787 8.85665 1.84177 8.15938C1.14451 7.46212 1.2113 6.39923 1.84177 5.76876L3.20349 4.40704C3.23982 4.37071 3.23982 4.31094 3.20349 4.27462L2.73708 3.80821C2.71946 3.79076 2.69567 3.78098 2.67087 3.78098C2.64608 3.78098 2.62228 3.79076 2.60466 3.80821L1.24294 5.16993C0.251538 6.16133 0.251538 7.76563 1.24294 8.75587C2.23435 9.7461 3.83865 9.74727 4.82888 8.75587L6.1906 7.39415C6.22693 7.35782 6.22693 7.29805 6.1906 7.26173L5.72654 6.79766ZM8.75701 1.24297C7.7656 0.251569 6.1613 0.251569 5.17107 1.24297L3.80818 2.60469C3.79073 2.62231 3.78094 2.64611 3.78094 2.6709C3.78094 2.6957 3.79073 2.7195 3.80818 2.73712L4.27341 3.20235C4.30974 3.23868 4.36951 3.23868 4.40584 3.20235L5.76755 1.84063C6.39802 1.21016 7.46208 1.14337 8.15818 1.84063C8.85544 2.5379 8.78865 3.60079 8.15818 4.23126L6.79646 5.59298C6.77901 5.6106 6.76923 5.63439 6.76923 5.65919C6.76923 5.68398 6.77901 5.70778 6.79646 5.7254L7.26287 6.1918C7.29919 6.22813 7.35896 6.22813 7.39529 6.1918L8.75701 4.83008C9.74724 3.83868 9.74724 2.23438 8.75701 1.24297V1.24297ZM6.14958 3.3629C6.13196 3.34545 6.10817 3.33566 6.08337 3.33566C6.05858 3.33566 6.03478 3.34545 6.01716 3.3629L3.36287 6.01602C3.34542 6.03364 3.33563 6.05744 3.33563 6.08223C3.33563 6.10703 3.34542 6.13082 3.36287 6.14844L3.82693 6.61251C3.86326 6.64883 3.92302 6.64883 3.95935 6.61251L6.61248 3.95938C6.6488 3.92305 6.6488 3.86329 6.61248 3.82696L6.14958 3.3629Z" fill="white"/>
</svg>
